<svg version="1.1" xmlns="http://www.w3.org/2000/svg" xmlns:xlink="http://www.w3.org/1999/xlink" width="144" height="144" viewBox="0,0,144,144"><g transform="translate(-168,-108)"><g data-paper-data="{&quot;isPaintingLayer&quot;:true}" fill-rule="nonzero" stroke="none" stroke-width="1" stroke-linecap="butt" stroke-linejoin="miter" stroke-miterlimit="10" stroke-dasharray="" stroke-dashoffset="0" style="mix-blend-mode: normal"><path d="M168,252v-144h144v144z" fill="#0f380f"/><path d="M177,243v-126h126v126z" fill="#8bac0f"/><path d="M212.68,225c-9.76439,0 -17.68,0 -17.68,0v-90c0,0 7.91561,0 17.68,0h54.64c9.76439,0 17.68,0 17.68,0v90c0,0 -7.91561,0 -17.68,0z" fill="#0f380f"/><path d="M226.72,207c-7.57735,0 -13.72,0 -13.72,0v-54c0,0 6.14265,0 13.72,0h26.56c7.57735,0 13.72,0 13.72,0v54c0,0 -6.14265,0 -13.72,0z" fill="#9ebb16"/></g></g></svg>